<svg xmlns="http://www.w3.org/2000/svg" viewBox="0 0 1200 750" role="img" aria-labelledby="title desc">
  <title id="title">Journal abbreviation illustration</title>
  <desc id="desc">A long journal title is shortened into an abbreviation card.</desc>
  <rect width="1200" height="750" fill="#efeeeb"/>
  <rect x="86" y="76" width="1028" height="598" rx="18" fill="#fff" stroke="#e7e6e1" stroke-width="3"/>
  <g transform="translate(152 174)">
    <rect x="0" y="0" width="376" height="322" rx="12" fill="#f8f8f6" stroke="#121212" stroke-width="5"/>
    <path d="M54 80h260M54 134h288M54 188h230M54 242h170" stroke="#121212" stroke-width="6" stroke-linecap="round"/>
    <text x="54" y="296" fill="#121212" font-family="Georgia, serif" font-size="34">Full journal title</text>
  </g>
  <g transform="translate(678 174)">
    <rect x="0" y="0" width="376" height="322" rx="12" fill="#f8f8f6" stroke="#121212" stroke-width="5"/>
    <path d="M54 86h76M156 86h72M254 86h52M54 154h92M172 154h84M54 222h120" stroke="#121212" stroke-width="6" stroke-linecap="round"/>
    <text x="54" y="296" fill="#121212" font-family="Georgia, serif" font-size="34">J. Am. Chem. Soc.</text>
  </g>
  <path d="M552 312h96M622 280l34 32-34 32" fill="none" stroke="#d97757" stroke-width="8" stroke-linecap="round" stroke-linejoin="round"/>
  <rect x="398" y="546" width="404" height="70" rx="10" fill="#efeeeb" stroke="#121212" stroke-width="5"/>
  <text x="450" y="591" fill="#121212" font-family="ui-sans-serif, system-ui, sans-serif" font-size="28" font-weight="700">NLM abbreviation check</text>
  <path d="M170 596c52 24 114 24 186 0M844 596c52 24 114 24 186 0" fill="none" stroke="#d97757" stroke-width="6" stroke-linecap="round"/>
</svg>
