<svg xmlns="http://www.w3.org/2000/svg" viewBox="0 0 1200 750" role="img" aria-labelledby="title desc">
  <title id="title">Turabian footnote illustration</title>
  <desc id="desc">A student paper with footnotes and bibliography pages drawn in ink.</desc>
  <rect width="1200" height="750" fill="#efeeeb"/>
  <rect x="90" y="72" width="1020" height="606" rx="18" fill="#fff" stroke="#e7e6e1" stroke-width="3"/>
  <path d="M252 142h456l96 92v376H252V142Z" fill="#f8f8f6" stroke="#121212" stroke-width="5" stroke-linejoin="round"/>
  <path d="M708 142v92h96" fill="none" stroke="#121212" stroke-width="5" stroke-linejoin="round"/>
  <path d="M330 246h310M330 296h360M330 346h330M330 396h284" stroke="#121212" stroke-width="6" stroke-linecap="round"/>
  <path d="M330 492h160M330 530h250" stroke="#7b7974" stroke-width="5" stroke-linecap="round"/>
  <path d="M300 470h452" stroke="#121212" stroke-width="4" stroke-linecap="round"/>
  <circle cx="304" cy="246" r="12" fill="#d97757"/>
  <text x="292" y="535" fill="#121212" font-family="Georgia, serif" font-size="46">1</text>
  <g transform="translate(750 340)">
    <rect x="0" y="0" width="220" height="236" rx="10" fill="#efeeeb" stroke="#121212" stroke-width="5"/>
    <path d="M38 56h136M38 96h150M38 136h114M38 176h132" stroke="#121212" stroke-width="5" stroke-linecap="round"/>
    <text x="38" y="218" fill="#d97757" font-family="Georgia, serif" font-size="28">Bibliography</text>
  </g>
  <path d="M172 202c20-28 45-45 75-52M928 158c38 10 67 31 88 62M168 596c36 20 78 21 126 2" fill="none" stroke="#d97757" stroke-width="6" stroke-linecap="round"/>
</svg>
