<svg width="720" height="420" viewBox="0 0 720 420" fill="none" xmlns="http://www.w3.org/2000/svg" role="img" aria-labelledby="title desc">
  <title id="title">Citation source trail illustration</title>
  <desc id="desc">Warm paper illustration showing source metadata moving into checked citation fields.</desc>
  <rect width="720" height="420" rx="28" fill="#ffffff"/>
  <rect x="28" y="28" width="664" height="364" rx="24" fill="#f8f8f6" stroke="#e7e6e1"/>
  <path d="M82 104C140 70 199 74 262 110C329 148 385 146 453 108C511 76 573 78 638 110" stroke="#e7e6e1" stroke-width="18" stroke-linecap="round"/>
  <path d="M84 104C142 70 201 74 263 110C329 148 385 146 453 108C511 76 573 78 637 110" stroke="#373734" stroke-width="2.5" stroke-linecap="round"/>
  <circle cx="104" cy="104" r="27" fill="#ffffff" stroke="#b7b7b5"/>
  <circle cx="104" cy="104" r="8" fill="#d97757"/>
  <rect x="72" y="166" width="158" height="128" rx="16" fill="#ffffff" stroke="#e7e6e1"/>
  <rect x="94" y="190" width="80" height="8" rx="4" fill="#121212"/>
  <rect x="94" y="214" width="110" height="8" rx="4" fill="#7b7974"/>
  <rect x="94" y="238" width="76" height="8" rx="4" fill="#7b7974"/>
  <rect x="94" y="262" width="98" height="8" rx="4" fill="#efeeeb"/>
  <rect x="282" y="124" width="156" height="172" rx="18" fill="#efeeeb" stroke="#e7e6e1"/>
  <rect x="310" y="154" width="100" height="10" rx="5" fill="#121212"/>
  <rect x="310" y="184" width="74" height="8" rx="4" fill="#373734"/>
  <rect x="310" y="210" width="96" height="8" rx="4" fill="#373734"/>
  <rect x="310" y="236" width="58" height="8" rx="4" fill="#373734"/>
  <path d="M316 265L333 282L371 244" stroke="#121212" stroke-width="9" stroke-linecap="round" stroke-linejoin="round"/>
  <rect x="492" y="166" width="156" height="128" rx="16" fill="#ffffff" stroke="#e7e6e1"/>
  <rect x="516" y="190" width="50" height="18" rx="9" fill="#efeeeb"/>
  <rect x="574" y="190" width="46" height="18" rx="9" fill="#efeeeb"/>
  <rect x="516" y="230" width="86" height="8" rx="4" fill="#121212"/>
  <rect x="516" y="254" width="104" height="8" rx="4" fill="#7b7974"/>
  <path d="M234 230H274" stroke="#d97757" stroke-width="3" stroke-linecap="round"/>
  <path d="M438 230H486" stroke="#d97757" stroke-width="3" stroke-linecap="round"/>
  <path d="M270 222L282 230L270 238" stroke="#d97757" stroke-width="3" stroke-linecap="round" stroke-linejoin="round"/>
  <path d="M482 222L494 230L482 238" stroke="#d97757" stroke-width="3" stroke-linecap="round" stroke-linejoin="round"/>
  <rect x="84" y="330" width="552" height="18" rx="9" fill="#efeeeb"/>
  <rect x="104" y="334" width="130" height="10" rx="5" fill="#373734"/>
  <rect x="252" y="334" width="98" height="10" rx="5" fill="#7b7974"/>
  <rect x="368" y="334" width="120" height="10" rx="5" fill="#7b7974"/>
  <rect x="506" y="334" width="94" height="10" rx="5" fill="#d97757"/>
</svg>
